<?xml version="1.0" encoding="UTF-8"?> <svg xmlns="http://www.w3.org/2000/svg" width="44" height="44" viewBox="0 0 44 44" fill="none"> <mask id="path-1-inside-1_438_2217" fill="white"> <path fill-rule="evenodd" clip-rule="evenodd" d="M23.3292 7.44623C23.3788 7.55595 23.4062 7.67436 23.41 7.79469C23.4138 7.91502 23.3938 8.03492 23.3512 8.14754C23.3087 8.26015 23.2444 8.36328 23.1619 8.45104C23.0795 8.53879 22.9806 8.60945 22.8709 8.65898C22.0677 9.02016 21.3855 9.60507 20.9059 10.3438C20.4264 11.0824 20.1697 11.9436 20.1667 12.8243V12.8564C20.1706 14.0279 20.6229 15.1535 21.4308 16.002C22.2388 16.8504 23.3409 17.3572 24.5109 17.4184C25.6808 17.4795 26.8298 17.0903 27.7217 16.3307C28.6137 15.5711 29.1809 14.4987 29.3068 13.334C29.3196 13.2143 29.3559 13.0982 29.4136 12.9925C29.4712 12.8868 29.5491 12.7935 29.6428 12.718C29.7366 12.6424 29.8442 12.586 29.9598 12.552C30.0753 12.518 30.1963 12.5072 30.3161 12.52C30.4358 12.5328 30.5518 12.5691 30.6575 12.6267C30.7632 12.6844 30.8565 12.7623 30.9321 12.856C31.0077 12.9497 31.064 13.0574 31.098 13.1729C31.132 13.2884 31.1429 13.4095 31.1301 13.5292C30.989 14.8481 30.4412 16.0904 29.5626 17.0841C30.9148 17.3895 32.1318 18.1247 33.0312 19.1796C33.1095 19.271 33.1689 19.3771 33.2062 19.4915C33.2435 19.606 33.2578 19.7267 33.2485 19.8467C33.2391 19.9667 33.2062 20.0837 33.1516 20.191C33.0971 20.2983 33.0219 20.3938 32.9304 20.4721C32.8389 20.5503 32.7329 20.6098 32.6184 20.647C32.504 20.6843 32.3833 20.6987 32.2633 20.6893C32.1432 20.68 32.0262 20.6471 31.9189 20.5925C31.8116 20.5379 31.7161 20.4627 31.6379 20.3712C30.9084 19.5135 29.8887 18.9543 28.7732 18.8003C27.6578 18.6463 26.5247 18.9083 25.5901 19.5364C24.6555 20.1644 23.9848 21.1146 23.7059 22.2055C23.427 23.2965 23.5596 24.4519 24.0781 25.4514C24.4415 25.4025 24.8114 25.4449 25.1543 25.5747C25.4973 25.7045 25.8025 25.9176 26.0426 26.1948C26.2754 26.4643 26.4853 26.7384 26.6751 27.0171C26.9739 27.4512 27.1069 27.9781 27.05 28.5021C27.4671 28.7615 27.8016 29.1602 27.9731 29.6616C28.1775 30.2593 28.3324 30.8377 28.4616 31.3419C28.5587 31.7189 28.5539 32.115 28.4479 32.4896C28.6881 32.7004 28.8861 32.9662 29.0199 33.2806C29.1134 33.4979 29.1776 33.5758 29.1941 33.5923C29.2555 33.6363 29.3151 33.684 29.371 33.7326C29.5424 33.6656 29.7248 33.6189 29.9155 33.5951C30.1083 33.5721 30.2999 33.5391 30.4893 33.4961C30.851 33.4171 31.2267 33.4302 31.582 33.5343C31.9372 33.6385 32.2606 33.8302 32.5225 34.0919C32.9157 33.8554 33.2045 33.5034 33.3475 33.0698C33.5308 32.518 33.5143 31.7214 32.9881 30.7011C32.8767 30.485 32.8556 30.2335 32.9296 30.0018C33.0036 29.7702 33.1666 29.5774 33.3828 29.4659C33.5989 29.3545 33.8504 29.3334 34.0821 29.4074C34.3137 29.4814 34.5065 29.6444 34.618 29.8606C34.9911 30.5847 35.2046 31.2961 35.2679 31.9707C35.827 31.3071 36.4155 30.4106 36.8977 29.2281C36.9428 29.1161 37.0096 29.0141 37.0942 28.928C37.1788 28.842 37.2795 28.7734 37.3907 28.7264C37.5019 28.6793 37.6212 28.6547 37.7419 28.6539C37.8626 28.6531 37.9823 28.6761 38.0941 28.7217C38.2058 28.7673 38.3075 28.8344 38.3932 28.9194C38.479 29.0044 38.5471 29.1054 38.5937 29.2168C38.6402 29.3281 38.6644 29.4476 38.6647 29.5683C38.665 29.689 38.6414 29.8086 38.5954 29.9201C38.0216 31.3272 37.3093 32.4043 36.6227 33.2082C37.0691 33.2605 37.5394 33.3705 38.0472 33.5474C38.277 33.6271 38.4656 33.7949 38.5717 34.0137C38.6778 34.2326 38.6925 34.4846 38.6128 34.7143C38.5331 34.9441 38.3653 35.1327 38.1465 35.2388C37.9276 35.3448 37.6756 35.3596 37.4459 35.2799C36.5347 34.9627 35.8857 34.9499 35.255 35.0819C34.6665 35.2038 34.0872 35.4449 33.2796 35.7831L33.1641 35.8317C33.1264 36.305 32.9374 36.7535 32.6251 37.1111C32.3128 37.4686 31.8937 37.7162 31.4298 37.8172C31.0916 37.8906 30.7625 37.9483 30.4426 37.9868C30.1341 38.0243 29.8211 37.9962 29.5243 37.9042C29.2275 37.8123 28.9534 37.6586 28.7201 37.4533C28.3791 37.5872 28.0101 37.6342 27.6464 37.5901C27.2827 37.5459 26.9356 37.412 26.6366 37.2003C25.7621 36.5834 25.2661 35.7483 24.9536 35.0186C24.7541 34.5546 24.7205 34.0361 24.8582 33.5501C24.5239 33.2566 24.2864 32.8686 24.1771 32.4373C24.0661 31.9856 23.9371 31.5385 23.7903 31.0971C23.6846 30.7912 23.6477 30.4657 23.6821 30.1438C23.4223 29.982 23.1991 29.7678 23.0267 29.515C22.9257 29.3675 22.8165 29.2258 22.6995 29.0906C22.3976 28.7421 22.2122 28.308 22.1691 27.8489C22.1261 27.3899 22.2275 26.9289 22.4593 26.5303C21.6034 25.6885 20.4505 25.2176 19.2501 25.2195C17.7834 25.2195 16.4781 25.907 15.6393 26.9795C15.5768 27.0697 15.512 27.1584 15.445 27.2453C14.936 28.001 14.6649 28.8917 14.6667 29.8028C14.6667 30.6764 14.9106 31.4895 15.3331 32.1834C15.4547 32.3908 15.4899 32.6377 15.4311 32.8709C15.3724 33.104 15.2244 33.3048 15.019 33.4298C14.8136 33.5549 14.5674 33.5942 14.3333 33.5394C14.0992 33.4846 13.896 33.34 13.7675 33.1367C13.0573 31.9727 12.738 30.6121 12.8563 29.2537C11.6544 29.7618 10.3265 29.8929 9.04847 29.6296C8.81034 29.5805 8.60147 29.4388 8.46781 29.2356C8.33415 29.0325 8.28665 28.7847 8.33576 28.5465C8.38487 28.3084 8.52656 28.0995 8.72967 27.9659C8.93278 27.8322 9.18067 27.7847 9.4188 27.8338C10.2559 28.0084 11.1252 27.9449 11.928 27.6505C12.7308 27.3561 13.4351 26.8426 13.9609 26.1682C14.0232 26.0775 14.0883 25.9886 14.1552 25.9024C14.8019 24.9411 15.0606 23.7706 14.8792 22.6264C14.6978 21.4821 14.0898 20.449 13.1775 19.7349C12.2652 19.0208 11.1164 18.6787 9.96204 18.7773C8.80771 18.876 7.73357 19.4081 6.95572 20.2667C6.79222 20.4468 6.56391 20.5545 6.321 20.5661C6.0781 20.5778 5.84049 20.4926 5.66047 20.3291C5.48044 20.1656 5.37274 19.9373 5.36105 19.6943C5.34936 19.4514 5.43464 19.2138 5.59813 19.0338C6.48415 18.0558 7.65032 17.3749 8.93755 17.0841C8.08725 16.1222 7.54617 14.9266 7.38472 13.653C7.35774 13.4135 7.42611 13.1731 7.57505 12.9837C7.72399 12.7943 7.94152 12.6712 8.18057 12.6409C8.41961 12.6107 8.66095 12.6758 8.85237 12.8221C9.04379 12.9685 9.16989 13.1843 9.20338 13.4229C9.35355 14.5754 9.93585 15.6278 10.8325 16.3672C11.7291 17.1067 12.8731 17.478 14.0331 17.406C15.1931 17.3341 16.2824 16.8242 17.0808 15.9795C17.8791 15.1349 18.3268 14.0186 18.3334 12.8564V12.8243C18.3306 11.9583 18.0826 11.1107 17.618 10.3798C17.1533 9.64897 16.4911 9.0647 15.7081 8.69473C15.5986 8.64367 15.5003 8.57148 15.4188 8.48231C15.3374 8.39314 15.2743 8.28875 15.2333 8.17513C15.1923 8.06152 15.1742 7.94092 15.1799 7.82027C15.1857 7.69962 15.2152 7.58131 15.2669 7.47212C15.3185 7.36292 15.3912 7.26501 15.4808 7.18401C15.5704 7.10301 15.6751 7.04052 15.789 7.00012C15.9028 6.95972 16.0235 6.94222 16.1441 6.94862C16.2647 6.95501 16.3829 6.98518 16.4918 7.03739C17.6366 7.58019 18.596 8.4484 19.2501 9.53348C19.9253 8.41333 20.9253 7.52516 22.1174 6.98698C22.339 6.88726 22.5911 6.87962 22.8184 6.96574C23.0456 7.05186 23.2294 7.22468 23.3292 7.44623ZM16.7439 23.894C17.5366 23.5578 18.389 23.385 19.2501 23.3861C20.1392 23.3861 20.9862 23.5667 21.7562 23.894C21.6805 23.0296 21.7816 22.1588 22.0533 21.3348C22.325 20.5107 22.7616 19.7506 23.3366 19.1007C22.4915 18.9094 21.6938 18.5491 20.9915 18.0415C20.2892 17.534 19.6969 16.8896 19.2501 16.1472C18.8031 16.8897 18.2106 17.5341 17.5082 18.0417C16.8057 18.5493 16.0079 18.9095 15.1626 19.1007C15.7377 19.7505 16.1745 20.5106 16.4463 21.3347C16.7182 22.1588 16.8194 23.0295 16.7439 23.894ZM19.2501 20.1778C19.1875 20.1739 19.1249 20.1827 19.066 20.2039C19.007 20.2251 18.9531 20.2582 18.9074 20.301C18.8617 20.3439 18.8253 20.3957 18.8005 20.4532C18.7756 20.5106 18.7627 20.5726 18.7627 20.6352C18.7627 20.6979 18.7756 20.7598 18.8005 20.8173C18.8253 20.8748 18.8617 20.9265 18.9074 20.9694C18.9531 21.0123 19.007 21.0453 19.066 21.0665C19.1249 21.0877 19.1875 21.0966 19.2501 21.0926C19.3664 21.0853 19.4755 21.0339 19.5553 20.9489C19.635 20.8639 19.6794 20.7518 19.6794 20.6352C19.6794 20.5187 19.635 20.4065 19.5553 20.3215C19.4755 20.2366 19.3664 20.1852 19.2501 20.1778ZM16.9584 20.6352C16.9584 20.0274 17.1998 19.4445 17.6296 19.0148C18.0594 18.585 18.6423 18.3436 19.2501 18.3436C19.8578 18.3436 20.4407 18.585 20.8705 19.0148C21.3003 19.4445 21.5417 20.0274 21.5417 20.6352C21.5417 21.243 21.3003 21.8259 20.8705 22.2557C20.4407 22.6855 19.8578 22.9269 19.2501 22.9269C18.6423 22.9269 18.0594 22.6855 17.6296 22.2557C17.1998 21.8259 16.9584 21.243 16.9584 20.6352ZM25.5897 30.1401L25.6997 30.0054L25.8739 30.0017C25.9539 30.0003 26.0324 30.0243 26.0979 30.0703C26.1635 30.1162 26.2128 30.1818 26.2387 30.2575C26.4193 30.7836 26.5596 31.3043 26.6851 31.7956C26.7027 31.8639 26.7009 31.9356 26.6798 32.0029C26.6588 32.0701 26.6193 32.1301 26.566 32.1761L26.4376 32.2888L26.2662 32.2641C26.1922 32.2534 26.1231 32.221 26.0675 32.1711C26.0118 32.1212 25.9722 32.0559 25.9536 31.9836C25.8303 31.4842 25.6868 30.99 25.5237 30.5022C25.5028 30.4413 25.4979 30.376 25.5095 30.3126C25.5211 30.2492 25.5487 30.1898 25.5897 30.1401ZM27.0381 33.7747L26.8694 33.7509L26.7383 33.8636C26.678 33.9163 26.6359 33.9867 26.6181 34.0648C26.6003 34.1429 26.6077 34.2246 26.6393 34.2981C26.8776 34.8546 27.1985 35.3523 27.6935 35.7034C27.7735 35.7602 27.8725 35.7837 27.9695 35.7688C28.0665 35.7539 28.1539 35.7019 28.2132 35.6236L28.3306 35.4678L28.2728 35.2817C28.2486 35.2023 28.1986 35.1333 28.1307 35.0856C27.7916 34.8463 27.5413 34.4861 27.3341 34.0011C27.3087 33.9411 27.2681 33.8888 27.2164 33.8491C27.1646 33.8094 27.1026 33.7838 27.0381 33.7747ZM29.8779 35.5622L29.7606 35.7181L29.8183 35.9051C29.8451 35.989 29.9003 36.0609 29.9744 36.1086C30.0485 36.1563 30.1369 36.1767 30.2244 36.1663C30.4984 36.1325 30.7706 36.0857 31.0402 36.0261C31.1381 36.0047 31.2234 35.9453 31.2775 35.861C31.3315 35.7766 31.3499 35.6743 31.3285 35.5764C31.3071 35.4786 31.2477 35.3932 31.1634 35.3392C31.0791 35.2851 30.9767 35.2667 30.8789 35.2881C30.6103 35.3459 30.3628 35.389 30.1336 35.4165C30.0833 35.4224 30.0347 35.4384 29.9907 35.4636C29.9468 35.4888 29.9084 35.5227 29.8779 35.5631V35.5622ZM24.8601 28.6441L25.0342 28.6405L25.1442 28.5048C25.1955 28.4415 25.225 28.3633 25.2283 28.2819C25.2316 28.2005 25.2085 28.1202 25.1626 28.0529C25.0065 27.8244 24.8375 27.605 24.6566 27.3956C24.5909 27.3199 24.4979 27.2734 24.3979 27.2662C24.2979 27.2591 24.1992 27.292 24.1235 27.3576C24.0478 27.4232 24.0012 27.5163 23.9941 27.6162C23.987 27.7162 24.0198 27.8149 24.0855 27.8906C24.2505 28.0822 24.4017 28.2784 24.5392 28.4791C24.5746 28.5314 24.6225 28.5738 24.6785 28.6027C24.7346 28.6315 24.797 28.6458 24.8601 28.6441ZM29.1977 33.596L29.195 33.5941C29.1958 33.5948 29.1968 33.5954 29.1977 33.596Z"></path> </mask> <path fill-rule="evenodd" clip-rule="evenodd" d="M23.3292 7.44623C23.3788 7.55595 23.4062 7.67436 23.41 7.79469C23.4138 7.91502 23.3938 8.03492 23.3512 8.14754C23.3087 8.26015 23.2444 8.36328 23.1619 8.45104C23.0795 8.53879 22.9806 8.60945 22.8709 8.65898C22.0677 9.02016 21.3855 9.60507 20.9059 10.3438C20.4264 11.0824 20.1697 11.9436 20.1667 12.8243V12.8564C20.1706 14.0279 20.6229 15.1535 21.4308 16.002C22.2388 16.8504 23.3409 17.3572 24.5109 17.4184C25.6808 17.4795 26.8298 17.0903 27.7217 16.3307C28.6137 15.5711 29.1809 14.4987 29.3068 13.334C29.3196 13.2143 29.3559 13.0982 29.4136 12.9925C29.4712 12.8868 29.5491 12.7935 29.6428 12.718C29.7366 12.6424 29.8442 12.586 29.9598 12.552C30.0753 12.518 30.1963 12.5072 30.3161 12.52C30.4358 12.5328 30.5518 12.5691 30.6575 12.6267C30.7632 12.6844 30.8565 12.7623 30.9321 12.856C31.0077 12.9497 31.064 13.0574 31.098 13.1729C31.132 13.2884 31.1429 13.4095 31.1301 13.5292C30.989 14.8481 30.4412 16.0904 29.5626 17.0841C30.9148 17.3895 32.1318 18.1247 33.0312 19.1796C33.1095 19.271 33.1689 19.3771 33.2062 19.4915C33.2435 19.606 33.2578 19.7267 33.2485 19.8467C33.2391 19.9667 33.2062 20.0837 33.1516 20.191C33.0971 20.2983 33.0219 20.3938 32.9304 20.4721C32.8389 20.5503 32.7329 20.6098 32.6184 20.647C32.504 20.6843 32.3833 20.6987 32.2633 20.6893C32.1432 20.68 32.0262 20.6471 31.9189 20.5925C31.8116 20.5379 31.7161 20.4627 31.6379 20.3712C30.9084 19.5135 29.8887 18.9543 28.7732 18.8003C27.6578 18.6463 26.5247 18.9083 25.5901 19.5364C24.6555 20.1644 23.9848 21.1146 23.7059 22.2055C23.427 23.2965 23.5596 24.4519 24.0781 25.4514C24.4415 25.4025 24.8114 25.4449 25.1543 25.5747C25.4973 25.7045 25.8025 25.9176 26.0426 26.1948C26.2754 26.4643 26.4853 26.7384 26.6751 27.0171C26.9739 27.4512 27.1069 27.9781 27.05 28.5021C27.4671 28.7615 27.8016 29.1602 27.9731 29.6616C28.1775 30.2593 28.3324 30.8377 28.4616 31.3419C28.5587 31.7189 28.5539 32.115 28.4479 32.4896C28.6881 32.7004 28.8861 32.9662 29.0199 33.2806C29.1134 33.4979 29.1776 33.5758 29.1941 33.5923C29.2555 33.6363 29.3151 33.684 29.371 33.7326C29.5424 33.6656 29.7248 33.6189 29.9155 33.5951C30.1083 33.5721 30.2999 33.5391 30.4893 33.4961C30.851 33.4171 31.2267 33.4302 31.582 33.5343C31.9372 33.6385 32.2606 33.8302 32.5225 34.0919C32.9157 33.8554 33.2045 33.5034 33.3475 33.0698C33.5308 32.518 33.5143 31.7214 32.9881 30.7011C32.8767 30.485 32.8556 30.2335 32.9296 30.0018C33.0036 29.7702 33.1666 29.5774 33.3828 29.4659C33.5989 29.3545 33.8504 29.3334 34.0821 29.4074C34.3137 29.4814 34.5065 29.6444 34.618 29.8606C34.9911 30.5847 35.2046 31.2961 35.2679 31.9707C35.827 31.3071 36.4155 30.4106 36.8977 29.2281C36.9428 29.1161 37.0096 29.0141 37.0942 28.928C37.1788 28.842 37.2795 28.7734 37.3907 28.7264C37.5019 28.6793 37.6212 28.6547 37.7419 28.6539C37.8626 28.6531 37.9823 28.6761 38.0941 28.7217C38.2058 28.7673 38.3075 28.8344 38.3932 28.9194C38.479 29.0044 38.5471 29.1054 38.5937 29.2168C38.6402 29.3281 38.6644 29.4476 38.6647 29.5683C38.665 29.689 38.6414 29.8086 38.5954 29.9201C38.0216 31.3272 37.3093 32.4043 36.6227 33.2082C37.0691 33.2605 37.5394 33.3705 38.0472 33.5474C38.277 33.6271 38.4656 33.7949 38.5717 34.0137C38.6778 34.2326 38.6925 34.4846 38.6128 34.7143C38.5331 34.9441 38.3653 35.1327 38.1465 35.2388C37.9276 35.3448 37.6756 35.3596 37.4459 35.2799C36.5347 34.9627 35.8857 34.9499 35.255 35.0819C34.6665 35.2038 34.0872 35.4449 33.2796 35.7831L33.1641 35.8317C33.1264 36.305 32.9374 36.7535 32.6251 37.1111C32.3128 37.4686 31.8937 37.7162 31.4298 37.8172C31.0916 37.8906 30.7625 37.9483 30.4426 37.9868C30.1341 38.0243 29.8211 37.9962 29.5243 37.9042C29.2275 37.8123 28.9534 37.6586 28.7201 37.4533C28.3791 37.5872 28.0101 37.6342 27.6464 37.5901C27.2827 37.5459 26.9356 37.412 26.6366 37.2003C25.7621 36.5834 25.2661 35.7483 24.9536 35.0186C24.7541 34.5546 24.7205 34.0361 24.8582 33.5501C24.5239 33.2566 24.2864 32.8686 24.1771 32.4373C24.0661 31.9856 23.9371 31.5385 23.7903 31.0971C23.6846 30.7912 23.6477 30.4657 23.6821 30.1438C23.4223 29.982 23.1991 29.7678 23.0267 29.515C22.9257 29.3675 22.8165 29.2258 22.6995 29.0906C22.3976 28.7421 22.2122 28.308 22.1691 27.8489C22.1261 27.3899 22.2275 26.9289 22.4593 26.5303C21.6034 25.6885 20.4505 25.2176 19.2501 25.2195C17.7834 25.2195 16.4781 25.907 15.6393 26.9795C15.5768 27.0697 15.512 27.1584 15.445 27.2453C14.936 28.001 14.6649 28.8917 14.6667 29.8028C14.6667 30.6764 14.9106 31.4895 15.3331 32.1834C15.4547 32.3908 15.4899 32.6377 15.4311 32.8709C15.3724 33.104 15.2244 33.3048 15.019 33.4298C14.8136 33.5549 14.5674 33.5942 14.3333 33.5394C14.0992 33.4846 13.896 33.34 13.7675 33.1367C13.0573 31.9727 12.738 30.6121 12.8563 29.2537C11.6544 29.7618 10.3265 29.8929 9.04847 29.6296C8.81034 29.5805 8.60147 29.4388 8.46781 29.2356C8.33415 29.0325 8.28665 28.7847 8.33576 28.5465C8.38487 28.3084 8.52656 28.0995 8.72967 27.9659C8.93278 27.8322 9.18067 27.7847 9.4188 27.8338C10.2559 28.0084 11.1252 27.9449 11.928 27.6505C12.7308 27.3561 13.4351 26.8426 13.9609 26.1682C14.0232 26.0775 14.0883 25.9886 14.1552 25.9024C14.8019 24.9411 15.0606 23.7706 14.8792 22.6264C14.6978 21.4821 14.0898 20.449 13.1775 19.7349C12.2652 19.0208 11.1164 18.6787 9.96204 18.7773C8.80771 18.876 7.73357 19.4081 6.95572 20.2667C6.79222 20.4468 6.56391 20.5545 6.321 20.5661C6.0781 20.5778 5.84049 20.4926 5.66047 20.3291C5.48044 20.1656 5.37274 19.9373 5.36105 19.6943C5.34936 19.4514 5.43464 19.2138 5.59813 19.0338C6.48415 18.0558 7.65032 17.3749 8.93755 17.0841C8.08725 16.1222 7.54617 14.9266 7.38472 13.653C7.35774 13.4135 7.42611 13.1731 7.57505 12.9837C7.72399 12.7943 7.94152 12.6712 8.18057 12.6409C8.41961 12.6107 8.66095 12.6758 8.85237 12.8221C9.04379 12.9685 9.16989 13.1843 9.20338 13.4229C9.35355 14.5754 9.93585 15.6278 10.8325 16.3672C11.7291 17.1067 12.8731 17.478 14.0331 17.406C15.1931 17.3341 16.2824 16.8242 17.0808 15.9795C17.8791 15.1349 18.3268 14.0186 18.3334 12.8564V12.8243C18.3306 11.9583 18.0826 11.1107 17.618 10.3798C17.1533 9.64897 16.4911 9.0647 15.7081 8.69473C15.5986 8.64367 15.5003 8.57148 15.4188 8.48231C15.3374 8.39314 15.2743 8.28875 15.2333 8.17513C15.1923 8.06152 15.1742 7.94092 15.1799 7.82027C15.1857 7.69962 15.2152 7.58131 15.2669 7.47212C15.3185 7.36292 15.3912 7.26501 15.4808 7.18401C15.5704 7.10301 15.6751 7.04052 15.789 7.00012C15.9028 6.95972 16.0235 6.94222 16.1441 6.94862C16.2647 6.95501 16.3829 6.98518 16.4918 7.03739C17.6366 7.58019 18.596 8.4484 19.2501 9.53348C19.9253 8.41333 20.9253 7.52516 22.1174 6.98698C22.339 6.88726 22.5911 6.87962 22.8184 6.96574C23.0456 7.05186 23.2294 7.22468 23.3292 7.44623ZM16.7439 23.894C17.5366 23.5578 18.389 23.385 19.2501 23.3861C20.1392 23.3861 20.9862 23.5667 21.7562 23.894C21.6805 23.0296 21.7816 22.1588 22.0533 21.3348C22.325 20.5107 22.7616 19.7506 23.3366 19.1007C22.4915 18.9094 21.6938 18.5491 20.9915 18.0415C20.2892 17.534 19.6969 16.8896 19.2501 16.1472C18.8031 16.8897 18.2106 17.5341 17.5082 18.0417C16.8057 18.5493 16.0079 18.9095 15.1626 19.1007C15.7377 19.7505 16.1745 20.5106 16.4463 21.3347C16.7182 22.1588 16.8194 23.0295 16.7439 23.894ZM19.2501 20.1778C19.1875 20.1739 19.1249 20.1827 19.066 20.2039C19.007 20.2251 18.9531 20.2582 18.9074 20.301C18.8617 20.3439 18.8253 20.3957 18.8005 20.4532C18.7756 20.5106 18.7627 20.5726 18.7627 20.6352C18.7627 20.6979 18.7756 20.7598 18.8005 20.8173C18.8253 20.8748 18.8617 20.9265 18.9074 20.9694C18.9531 21.0123 19.007 21.0453 19.066 21.0665C19.1249 21.0877 19.1875 21.0966 19.2501 21.0926C19.3664 21.0853 19.4755 21.0339 19.5553 20.9489C19.635 20.8639 19.6794 20.7518 19.6794 20.6352C19.6794 20.5187 19.635 20.4065 19.5553 20.3215C19.4755 20.2366 19.3664 20.1852 19.2501 20.1778ZM16.9584 20.6352C16.9584 20.0274 17.1998 19.4445 17.6296 19.0148C18.0594 18.585 18.6423 18.3436 19.2501 18.3436C19.8578 18.3436 20.4407 18.585 20.8705 19.0148C21.3003 19.4445 21.5417 20.0274 21.5417 20.6352C21.5417 21.243 21.3003 21.8259 20.8705 22.2557C20.4407 22.6855 19.8578 22.9269 19.2501 22.9269C18.6423 22.9269 18.0594 22.6855 17.6296 22.2557C17.1998 21.8259 16.9584 21.243 16.9584 20.6352ZM25.5897 30.1401L25.6997 30.0054L25.8739 30.0017C25.9539 30.0003 26.0324 30.0243 26.0979 30.0703C26.1635 30.1162 26.2128 30.1818 26.2387 30.2575C26.4193 30.7836 26.5596 31.3043 26.6851 31.7956C26.7027 31.8639 26.7009 31.9356 26.6798 32.0029C26.6588 32.0701 26.6193 32.1301 26.566 32.1761L26.4376 32.2888L26.2662 32.2641C26.1922 32.2534 26.1231 32.221 26.0675 32.1711C26.0118 32.1212 25.9722 32.0559 25.9536 31.9836C25.8303 31.4842 25.6868 30.99 25.5237 30.5022C25.5028 30.4413 25.4979 30.376 25.5095 30.3126C25.5211 30.2492 25.5487 30.1898 25.5897 30.1401ZM27.0381 33.7747L26.8694 33.7509L26.7383 33.8636C26.678 33.9163 26.6359 33.9867 26.6181 34.0648C26.6003 34.1429 26.6077 34.2246 26.6393 34.2981C26.8776 34.8546 27.1985 35.3523 27.6935 35.7034C27.7735 35.7602 27.8725 35.7837 27.9695 35.7688C28.0665 35.7539 28.1539 35.7019 28.2132 35.6236L28.3306 35.4678L28.2728 35.2817C28.2486 35.2023 28.1986 35.1333 28.1307 35.0856C27.7916 34.8463 27.5413 34.4861 27.3341 34.0011C27.3087 33.9411 27.2681 33.8888 27.2164 33.8491C27.1646 33.8094 27.1026 33.7838 27.0381 33.7747ZM29.8779 35.5622L29.7606 35.7181L29.8183 35.9051C29.8451 35.989 29.9003 36.0609 29.9744 36.1086C30.0485 36.1563 30.1369 36.1767 30.2244 36.1663C30.4984 36.1325 30.7706 36.0857 31.0402 36.0261C31.1381 36.0047 31.2234 35.9453 31.2775 35.861C31.3315 35.7766 31.3499 35.6743 31.3285 35.5764C31.3071 35.4786 31.2477 35.3932 31.1634 35.3392C31.0791 35.2851 30.9767 35.2667 30.8789 35.2881C30.6103 35.3459 30.3628 35.389 30.1336 35.4165C30.0833 35.4224 30.0347 35.4384 29.9907 35.4636C29.9468 35.4888 29.9084 35.5227 29.8779 35.5631V35.5622ZM24.8601 28.6441L25.0342 28.6405L25.1442 28.5048C25.1955 28.4415 25.225 28.3633 25.2283 28.2819C25.2316 28.2005 25.2085 28.1202 25.1626 28.0529C25.0065 27.8244 24.8375 27.605 24.6566 27.3956C24.5909 27.3199 24.4979 27.2734 24.3979 27.2662C24.2979 27.2591 24.1992 27.292 24.1235 27.3576C24.0478 27.4232 24.0012 27.5163 23.9941 27.6162C23.987 27.7162 24.0198 27.8149 24.0855 27.8906C24.2505 28.0822 24.4017 28.2784 24.5392 28.4791C24.5746 28.5314 24.6225 28.5738 24.6785 28.6027C24.7346 28.6315 24.797 28.6458 24.8601 28.6441ZM29.1977 33.596L29.195 33.5941C29.1958 33.5948 29.1968 33.5954 29.1977 33.596Z" fill="#D7B56D" stroke="white" stroke-width="0.4" mask="url(#path-1-inside-1_438_2217)"></path> </svg> 