<?xml version="1.0" encoding="UTF-8"?> <svg xmlns="http://www.w3.org/2000/svg" width="41" height="41" viewBox="0 0 41 41" fill="none"> <path fill-rule="evenodd" clip-rule="evenodd" d="M14.2774 12.9167C15.2853 14.0152 16.9885 14.4867 20.1088 14.5533C20.2864 12.1967 21.1944 10.3406 22.538 9.0371C24.0311 7.58843 26.011 6.87435 27.9756 6.87435C29.9402 6.87435 31.921 7.58843 33.4141 9.0371C34.9174 10.4952 35.875 12.6468 35.875 15.416V24.8118C35.875 27.4444 35.4368 30.194 34.1103 32.3114C32.7444 34.4913 30.4894 35.916 27.1146 35.916C23.6621 35.916 21.2593 33.8677 19.0615 31.9715L18.9659 31.8886C16.7536 29.9787 14.6908 28.1995 11.7593 27.8014C10.3217 27.8125 9.35394 28.2516 8.6783 28.8529C7.97788 29.4765 7.52517 30.334 7.2433 31.2548C6.96142 32.1739 6.86405 33.1084 6.84013 33.8225C6.82782 34.1841 6.83324 34.5461 6.85636 34.9072C6.85766 34.9258 6.85908 34.9443 6.86063 34.9628L6.86234 34.9747L6.01245 35.0618C5.16255 35.149 5.16255 35.1481 5.16255 35.1473V35.1447L5.1617 35.137L5.15913 35.114C5.14906 34.9928 5.14137 34.8715 5.13607 34.7501C5.12582 34.5101 5.11899 34.171 5.13265 33.7644C5.15999 32.9589 5.26932 31.8639 5.61013 30.7543C5.94924 29.6464 6.53349 28.4745 7.54226 27.5768C8.56726 26.6645 9.96638 26.0931 11.8139 26.0931C12.2436 26.0931 12.6485 26.1025 13.0371 26.1119C13.7597 26.129 14.4277 26.1461 15.0974 26.0948C16.0839 26.0213 16.8971 25.8061 17.5693 25.303C18.8565 24.3378 19.9712 22.0358 20.0695 16.2616C16.8928 16.1959 14.5345 15.7235 13.0192 14.0716C12.1958 13.1747 11.6875 12.0002 11.3809 10.5473C11.0759 9.10031 10.9598 7.32279 10.9598 5.16602H12.6681C12.6681 7.28008 12.7834 8.91922 13.0525 10.1945C13.3207 11.4646 13.7298 12.3188 14.2774 12.9167ZM19.9627 30.4921C18.8446 29.5269 17.6496 28.4933 16.2667 27.6631C17.073 27.5067 17.8691 27.2129 18.5943 26.6697C19.7047 25.8368 20.5418 24.5052 21.0799 22.4603C22.4859 21.5122 23.6424 21.3115 24.6572 21.4225C25.7437 21.5421 26.7473 22.023 27.8543 22.5842L28.0388 22.6781C29.0442 23.1889 30.1785 23.7663 31.3838 23.9175C32.3392 24.0427 33.3102 23.8731 34.1666 23.4315V24.8118C34.1666 27.3043 33.743 29.6797 32.6624 31.4052C31.6204 33.0691 29.9206 34.2068 27.1138 34.2068C24.383 34.2068 22.4347 32.6258 20.1779 30.6783L19.9627 30.4921ZM34.1666 21.4174V15.416C34.1666 13.0602 33.3637 11.3673 32.2243 10.2637C31.0763 9.14899 29.5336 8.58268 27.9756 8.58268C26.4176 8.58268 24.875 9.14899 23.727 10.2637C22.5884 11.3681 21.7855 13.0602 21.7855 15.416C21.7855 17.2901 21.6898 18.8976 21.5028 20.2728C22.6832 19.7483 23.7902 19.6091 24.8443 19.7244C26.281 19.8825 27.5451 20.512 28.6274 21.0603L28.7042 21.0996C29.807 21.6583 30.6962 22.1093 31.5973 22.2229C32.3575 22.3185 33.1809 22.175 34.1666 21.4174Z" fill="#D7B56D"></path> </svg> 