<?xml version="1.0" encoding="UTF-8"?> <svg xmlns="http://www.w3.org/2000/svg" width="39" height="39" viewBox="0 0 39 39" fill="none"> <mask id="path-1-inside-1_438_2219" fill="white"> <path d="M12.9187 29.575C12.9187 28.9521 13.007 28.3362 13.1836 27.7274C13.3602 27.1185 13.6375 26.5427 14.0156 26C14.2323 25.7021 14.3948 25.3836 14.5031 25.0445C14.6115 24.7054 14.6656 24.3468 14.6656 23.9688C14.6656 23.5354 14.5844 23.1292 14.4219 22.75L13.9344 21.6125C13.6635 21.0979 13.4398 20.5698 13.2632 20.0281C13.0867 19.4865 12.9989 18.9313 13 18.3625V12.1875C13 11.5104 12.7627 10.9346 12.2882 10.4601C11.8137 9.98562 11.2385 9.74892 10.5625 9.75C9.99375 9.75 9.49271 9.93958 9.05937 10.3187C8.62604 10.6979 8.34167 11.1583 8.20625 11.7C9.12708 12.0521 9.88542 12.6409 10.4812 13.4664C11.0771 14.2919 11.375 15.2197 11.375 16.25C11.375 17.6042 10.901 18.7552 9.95312 19.7031C9.00521 20.651 7.85417 21.125 6.5 21.125C5.14583 21.125 3.99479 20.651 3.04688 19.7031C2.09896 18.7552 1.625 17.6042 1.625 16.25C1.625 15.1667 1.93646 14.2052 2.55938 13.3656C3.18229 12.526 3.98125 11.9438 4.95625 11.6188C5.09167 10.1563 5.69454 8.9375 6.76488 7.9625C7.83521 6.9875 9.10108 6.5 10.5625 6.5C10.7521 6.5 10.9417 6.5065 11.1312 6.5195C11.3208 6.5325 11.5104 6.56662 11.7 6.62187C12.8917 5.99896 14.144 5.55208 15.457 5.28125C16.77 5.01042 18.1177 4.875 19.5 4.875C20.8542 4.875 22.1883 5.01042 23.5024 5.28125C24.8165 5.55208 26.0688 5.99896 27.2594 6.62187C27.449 6.56771 27.6385 6.53358 27.8281 6.5195C28.0177 6.50542 28.2073 6.49892 28.3969 6.5C29.8865 6.5 31.1664 6.9875 32.2367 7.9625C33.3071 8.9375 33.9094 10.1563 34.0438 11.6188C35.0188 11.9438 35.8177 12.526 36.4406 13.3656C37.0635 14.2052 37.375 15.1667 37.375 16.25C37.375 17.6042 36.901 18.7552 35.9531 19.7031C35.0052 20.651 33.8542 21.125 32.5 21.125C31.1458 21.125 29.9948 20.651 29.0469 19.7031C28.099 18.7552 27.625 17.6042 27.625 16.25C27.625 15.2208 27.9229 14.293 28.5187 13.4664C29.1146 12.6398 29.8729 12.051 30.7938 11.7C30.6583 11.1583 30.374 10.6979 29.9406 10.3187C29.5073 9.93958 28.9927 9.75 28.3969 9.75C27.7198 9.75 27.151 9.98725 26.6906 10.4618C26.2302 10.9363 26 11.5115 26 12.1875V18.3625C26 18.9313 25.9052 19.4865 25.7156 20.0281C25.526 20.5698 25.3094 21.0979 25.0656 21.6125C24.876 21.9917 24.7065 22.3708 24.557 22.75C24.4075 23.1292 24.3333 23.5354 24.3344 23.9688C24.3344 24.3479 24.3885 24.707 24.4969 25.0461C24.6052 25.3852 24.7677 25.7032 24.9844 26C25.3365 26.5417 25.6073 27.1175 25.7969 27.7274C25.9865 28.3373 26.0812 28.9532 26.0812 29.575C26.0812 30.0896 26.02 30.5906 25.8976 31.0781C25.7752 31.5656 25.6062 32.0396 25.3906 32.5L24.9438 33.3937C24.7271 33.9625 24.3073 34.2945 23.6844 34.3899L22.75 34.5312C22.3708 34.1521 22.1 33.7388 21.9375 33.2914C21.775 32.844 21.8021 32.3906 22.0188 31.9312L22.4656 31.0375C22.601 30.8208 22.6958 30.5906 22.75 30.3469C22.8042 30.1031 22.8313 29.8458 22.8313 29.575C22.8313 29.25 22.7771 28.9385 22.6687 28.6406C22.5604 28.3427 22.425 28.0583 22.2625 27.7875C21.8833 27.2458 21.5925 26.65 21.3899 26C21.1873 25.35 21.0855 24.6865 21.0844 24.0094C21.0844 23.3865 21.1727 22.7971 21.3492 22.2414C21.5258 21.6856 21.7625 21.1375 22.0594 20.5969C22.2219 20.2177 22.3779 19.845 22.5274 19.4789C22.6769 19.1127 22.7511 18.7406 22.75 18.3625V12.1875C22.75 11.5375 22.8518 10.9216 23.0555 10.3399C23.2592 9.75812 23.55 9.22296 23.9281 8.73438C23.224 8.51771 22.4997 8.36171 21.7555 8.26637C21.0112 8.17104 20.2594 8.12392 19.5 8.125C18.7417 8.125 17.9898 8.17267 17.2445 8.268C16.4992 8.36333 15.775 8.51879 15.0719 8.73438C15.451 9.22188 15.7419 9.75704 15.9445 10.3399C16.1471 10.9227 16.2489 11.5386 16.25 12.1875V18.3625C16.25 18.7417 16.3177 19.1208 16.4531 19.5C16.5885 19.8792 16.751 20.2448 16.9406 20.5969C17.2115 21.1385 17.4417 21.6867 17.6313 22.2414C17.8208 22.796 17.9156 23.3854 17.9156 24.0094C17.9156 24.6865 17.8143 25.3435 17.6118 25.9805C17.4092 26.6175 17.1178 27.2198 16.7375 27.7875C16.5479 28.0583 16.4055 28.3427 16.3101 28.6406C16.2148 28.9385 16.1677 29.25 16.1687 29.575C16.1687 29.8458 16.1958 30.1031 16.25 30.3469C16.3042 30.5906 16.399 30.8208 16.5344 31.0375L16.9812 31.9312C17.1979 32.3375 17.232 32.7508 17.0836 33.1711C16.9352 33.5915 16.6573 33.9094 16.25 34.125C15.8438 34.3417 15.4305 34.3758 15.0101 34.2274C14.5898 34.079 14.2718 33.8011 14.0562 33.3937L13.6094 32.5C13.3656 32.0396 13.1896 31.5656 13.0813 31.0781C12.9729 30.5906 12.9187 30.0896 12.9187 29.575ZM6.5 17.875C6.96042 17.875 7.34662 17.719 7.65862 17.407C7.97062 17.095 8.12608 16.7093 8.125 16.25C8.125 15.7896 7.969 15.4034 7.657 15.0914C7.345 14.7794 6.95933 14.6239 6.5 14.625C6.03958 14.625 5.65337 14.781 5.34137 15.093C5.02937 15.405 4.87392 15.7907 4.875 16.25C4.875 16.7104 5.031 17.0966 5.343 17.4086C5.655 17.7206 6.04067 17.8761 6.5 17.875ZM32.5 17.875C32.9604 17.875 33.3466 17.719 33.6586 17.407C33.9706 17.095 34.1261 16.7093 34.125 16.25C34.125 15.7896 33.969 15.4034 33.657 15.0914C33.345 14.7794 32.9593 14.6239 32.5 14.625C32.0396 14.625 31.6534 14.781 31.3414 15.093C31.0294 15.405 30.8739 15.7907 30.875 16.25C30.875 16.7104 31.031 17.0966 31.343 17.4086C31.655 17.7206 32.0407 17.8761 32.5 17.875Z"></path> </mask> <path d="M12.9187 29.575C12.9187 28.9521 13.007 28.3362 13.1836 27.7274C13.3602 27.1185 13.6375 26.5427 14.0156 26C14.2323 25.7021 14.3948 25.3836 14.5031 25.0445C14.6115 24.7054 14.6656 24.3468 14.6656 23.9688C14.6656 23.5354 14.5844 23.1292 14.4219 22.75L13.9344 21.6125C13.6635 21.0979 13.4398 20.5698 13.2632 20.0281C13.0867 19.4865 12.9989 18.9313 13 18.3625V12.1875C13 11.5104 12.7627 10.9346 12.2882 10.4601C11.8137 9.98562 11.2385 9.74892 10.5625 9.75C9.99375 9.75 9.49271 9.93958 9.05937 10.3187C8.62604 10.6979 8.34167 11.1583 8.20625 11.7C9.12708 12.0521 9.88542 12.6409 10.4812 13.4664C11.0771 14.2919 11.375 15.2197 11.375 16.25C11.375 17.6042 10.901 18.7552 9.95312 19.7031C9.00521 20.651 7.85417 21.125 6.5 21.125C5.14583 21.125 3.99479 20.651 3.04688 19.7031C2.09896 18.7552 1.625 17.6042 1.625 16.25C1.625 15.1667 1.93646 14.2052 2.55938 13.3656C3.18229 12.526 3.98125 11.9438 4.95625 11.6188C5.09167 10.1563 5.69454 8.9375 6.76488 7.9625C7.83521 6.9875 9.10108 6.5 10.5625 6.5C10.7521 6.5 10.9417 6.5065 11.1312 6.5195C11.3208 6.5325 11.5104 6.56662 11.7 6.62187C12.8917 5.99896 14.144 5.55208 15.457 5.28125C16.77 5.01042 18.1177 4.875 19.5 4.875C20.8542 4.875 22.1883 5.01042 23.5024 5.28125C24.8165 5.55208 26.0688 5.99896 27.2594 6.62187C27.449 6.56771 27.6385 6.53358 27.8281 6.5195C28.0177 6.50542 28.2073 6.49892 28.3969 6.5C29.8865 6.5 31.1664 6.9875 32.2367 7.9625C33.3071 8.9375 33.9094 10.1563 34.0438 11.6188C35.0188 11.9438 35.8177 12.526 36.4406 13.3656C37.0635 14.2052 37.375 15.1667 37.375 16.25C37.375 17.6042 36.901 18.7552 35.9531 19.7031C35.0052 20.651 33.8542 21.125 32.5 21.125C31.1458 21.125 29.9948 20.651 29.0469 19.7031C28.099 18.7552 27.625 17.6042 27.625 16.25C27.625 15.2208 27.9229 14.293 28.5187 13.4664C29.1146 12.6398 29.8729 12.051 30.7938 11.7C30.6583 11.1583 30.374 10.6979 29.9406 10.3187C29.5073 9.93958 28.9927 9.75 28.3969 9.75C27.7198 9.75 27.151 9.98725 26.6906 10.4618C26.2302 10.9363 26 11.5115 26 12.1875V18.3625C26 18.9313 25.9052 19.4865 25.7156 20.0281C25.526 20.5698 25.3094 21.0979 25.0656 21.6125C24.876 21.9917 24.7065 22.3708 24.557 22.75C24.4075 23.1292 24.3333 23.5354 24.3344 23.9688C24.3344 24.3479 24.3885 24.707 24.4969 25.0461C24.6052 25.3852 24.7677 25.7032 24.9844 26C25.3365 26.5417 25.6073 27.1175 25.7969 27.7274C25.9865 28.3373 26.0812 28.9532 26.0812 29.575C26.0812 30.0896 26.02 30.5906 25.8976 31.0781C25.7752 31.5656 25.6062 32.0396 25.3906 32.5L24.9438 33.3937C24.7271 33.9625 24.3073 34.2945 23.6844 34.3899L22.75 34.5312C22.3708 34.1521 22.1 33.7388 21.9375 33.2914C21.775 32.844 21.8021 32.3906 22.0188 31.9312L22.4656 31.0375C22.601 30.8208 22.6958 30.5906 22.75 30.3469C22.8042 30.1031 22.8313 29.8458 22.8313 29.575C22.8313 29.25 22.7771 28.9385 22.6687 28.6406C22.5604 28.3427 22.425 28.0583 22.2625 27.7875C21.8833 27.2458 21.5925 26.65 21.3899 26C21.1873 25.35 21.0855 24.6865 21.0844 24.0094C21.0844 23.3865 21.1727 22.7971 21.3492 22.2414C21.5258 21.6856 21.7625 21.1375 22.0594 20.5969C22.2219 20.2177 22.3779 19.845 22.5274 19.4789C22.6769 19.1127 22.7511 18.7406 22.75 18.3625V12.1875C22.75 11.5375 22.8518 10.9216 23.0555 10.3399C23.2592 9.75812 23.55 9.22296 23.9281 8.73438C23.224 8.51771 22.4997 8.36171 21.7555 8.26637C21.0112 8.17104 20.2594 8.12392 19.5 8.125C18.7417 8.125 17.9898 8.17267 17.2445 8.268C16.4992 8.36333 15.775 8.51879 15.0719 8.73438C15.451 9.22188 15.7419 9.75704 15.9445 10.3399C16.1471 10.9227 16.2489 11.5386 16.25 12.1875V18.3625C16.25 18.7417 16.3177 19.1208 16.4531 19.5C16.5885 19.8792 16.751 20.2448 16.9406 20.5969C17.2115 21.1385 17.4417 21.6867 17.6313 22.2414C17.8208 22.796 17.9156 23.3854 17.9156 24.0094C17.9156 24.6865 17.8143 25.3435 17.6118 25.9805C17.4092 26.6175 17.1178 27.2198 16.7375 27.7875C16.5479 28.0583 16.4055 28.3427 16.3101 28.6406C16.2148 28.9385 16.1677 29.25 16.1687 29.575C16.1687 29.8458 16.1958 30.1031 16.25 30.3469C16.3042 30.5906 16.399 30.8208 16.5344 31.0375L16.9812 31.9312C17.1979 32.3375 17.232 32.7508 17.0836 33.1711C16.9352 33.5915 16.6573 33.9094 16.25 34.125C15.8438 34.3417 15.4305 34.3758 15.0101 34.2274C14.5898 34.079 14.2718 33.8011 14.0562 33.3937L13.6094 32.5C13.3656 32.0396 13.1896 31.5656 13.0813 31.0781C12.9729 30.5906 12.9187 30.0896 12.9187 29.575ZM6.5 17.875C6.96042 17.875 7.34662 17.719 7.65862 17.407C7.97062 17.095 8.12608 16.7093 8.125 16.25C8.125 15.7896 7.969 15.4034 7.657 15.0914C7.345 14.7794 6.95933 14.6239 6.5 14.625C6.03958 14.625 5.65337 14.781 5.34137 15.093C5.02937 15.405 4.87392 15.7907 4.875 16.25C4.875 16.7104 5.031 17.0966 5.343 17.4086C5.655 17.7206 6.04067 17.8761 6.5 17.875ZM32.5 17.875C32.9604 17.875 33.3466 17.719 33.6586 17.407C33.9706 17.095 34.1261 16.7093 34.125 16.25C34.125 15.7896 33.969 15.4034 33.657 15.0914C33.345 14.7794 32.9593 14.6239 32.5 14.625C32.0396 14.625 31.6534 14.781 31.3414 15.093C31.0294 15.405 30.8739 15.7907 30.875 16.25C30.875 16.7104 31.031 17.0966 31.343 17.4086C31.655 17.7206 32.0407 17.8761 32.5 17.875Z" fill="#D7B56D" stroke="white" stroke-width="1.6" mask="url(#path-1-inside-1_438_2219)"></path> </svg> 